<svg width="51" height="51" viewBox="0 0 51 51" fill="none" xmlns="http://www.w3.org/2000/svg">
<rect x="0.599976" y="0.259766" width="50" height="50" rx="25" fill="#ED1C24"/>
<path d="M33.07 19.8205V33.3605C33.07 33.4805 33.04 33.6002 32.99 33.7102C32.94 33.8302 32.87 33.92 32.78 34.01C32.69 34.09 32.59 34.1504 32.48 34.2004C32.37 34.2404 32.25 34.26 32.13 34.26H19.07C18.82 34.27 18.59 34.17 18.41 34.01C18.24 33.83 18.13 33.6105 18.13 33.3605V17.1604C18.13 16.9104 18.24 16.69 18.41 16.51C18.59 16.35 18.82 16.25 19.07 16.26H29.26L33.07 19.8205Z" stroke="white" stroke-miterlimit="10"/>
<path d="M33.07 19.8501H29.26V16.2603" stroke="white" stroke-miterlimit="10"/>
<path d="M21.74 30.7012C21.74 30.7012 21.78 31.3511 22.49 31.1211C23.2 30.8811 24.53 28.051 24.98 26.541C25.43 25.181 25.77 23.7813 26.01 22.3613C26.06 21.6513 25.58 21.561 25.41 21.581C25.25 21.601 24.69 21.8408 24.96 22.8008C25.22 23.7408 25.62 24.6309 26.14 25.4609C26.68 26.3709 27.34 27.2114 28.11 27.9414C28.31 28.1614 28.56 28.3309 28.84 28.4209C29.12 28.5309 29.42 28.571 29.72 28.541C30.34 28.421 30.54 27.3808 29.43 27.3808C28.29 27.4108 27.15 27.6114 26.06 27.9814C24.78 28.3514 23.56 28.9011 22.44 29.6211C21.87 30.1011 21.74 30.3912 21.74 30.7012Z" stroke="white" stroke-miterlimit="10"/>
</svg>
