<svg width="41" height="326" viewBox="0 0 41 326" fill="none" xmlns="http://www.w3.org/2000/svg">
<path d="M11.5 302.76L29.8 320.96V315.06L17.4 302.76L29.8 290.36V284.46L11.5 302.76Z" fill="#FF7E00"/>
<path d="M11.5 307.76V325.96H29.8L11.5 307.76Z" fill="#FF7E00"/>
<path d="M29.8001 295.56L22.6001 302.76L29.8001 309.96V295.56Z" fill="#FF7E00"/>
<path d="M29.8 243.86V237.96L11.5 256.16L29.8 274.46V268.56L17.4 256.16L29.8 243.86Z" fill="#FF7E00"/>
<path d="M29.8 279.46L11.5 261.26V297.66L29.8 279.46Z" fill="#FF7E00"/>
<path d="M22.6001 256.16L29.8001 263.36V249.06L22.6001 256.16Z" fill="#FF7E00"/>
<path d="M8.20001 158.16V111.56V65.0601V18.5601V0.360046H5.40002V18.5601V65.0601V111.56V158.16V204.66V251.16V297.66V325.96H8.20001V297.66V251.16V204.66V158.16Z" fill="#FF7E00"/>
<path d="M3.10004 158.16V111.56V65.0601V18.5601V0.360046H0.400024V18.5601V65.0601V111.56V158.16V204.66V251.16V297.66V325.96H3.10004V297.66V251.16V204.66V158.16Z" fill="#FF7E00"/>
<path d="M29.8 197.36V191.46L11.5 209.66L29.8 227.86V222.06L17.4 209.66L29.8 197.36Z" fill="#FF7E00"/>
<path d="M29.8 232.96L11.5 214.76V251.16L29.8 232.96Z" fill="#FF7E00"/>
<path d="M22.6001 209.66L29.8001 216.86V202.46L22.6001 209.66Z" fill="#FF7E00"/>
<path d="M29.8 150.86V144.96L11.5 163.16L29.8 181.36V175.46L17.4 163.16L29.8 150.86Z" fill="#FF7E00"/>
<path d="M29.8 186.46L11.5 168.16V204.66L29.8 186.46Z" fill="#FF7E00"/>
<path d="M22.6001 163.16L29.8001 170.36V155.96L22.6001 163.16Z" fill="#FF7E00"/>
<path d="M29.8 104.26V98.4601L11.5 116.66L29.8 134.86V128.96L17.4 116.66L29.8 104.26Z" fill="#FF7E00"/>
<path d="M29.8 139.86L11.5 121.66V158.16L29.8 139.86Z" fill="#FF7E00"/>
<path d="M22.6001 116.66L29.8001 123.86V109.46L22.6001 116.66Z" fill="#FF7E00"/>
<path d="M29.8 57.76V51.86L11.5 70.16L29.8 88.36V82.4601L17.4 70.16L29.8 57.76Z" fill="#FF7E00"/>
<path d="M29.8 93.36L11.5 75.16V111.56L29.8 93.36Z" fill="#FF7E00"/>
<path d="M22.6001 70.16L29.8001 77.26V62.9601L22.6001 70.16Z" fill="#FF7E00"/>
<path d="M29.8 11.26V5.36005L11.5 23.5601L29.8 41.76V35.9601L17.4 23.5601L29.8 11.26Z" fill="#FF7E00"/>
<path d="M29.8 46.86L11.5 28.66V65.0601L29.8 46.86Z" fill="#FF7E00"/>
<path d="M22.6001 23.5601L29.8001 30.76V16.36L22.6001 23.5601Z" fill="#FF7E00"/>
<path d="M40.3001 158.16V111.56V65.0601V18.5601V0.360046H33.1001V18.5601V65.0601V111.56V158.16V204.66V251.16V297.66V325.96H40.3001V297.66V251.16V204.66V158.16Z" fill="#FF7E00"/>
<path d="M11.5 18.5601L29.8 0.360046H11.5V18.5601Z" fill="#FF7E00"/>
</svg>
